<svg width="35" height="35" viewBox="0 0 35 35" fill="none" xmlns="http://www.w3.org/2000/svg">
<g filter="url(#filter0_i_930_2421)">
<path d="M14.384 20.0285C16.3555 22.0285 18.741 23.5727 21.3729 24.5524L24.9334 21.7191C25.039 21.6464 25.1642 21.6075 25.2923 21.6075C25.4205 21.6075 25.5457 21.6464 25.6512 21.7191L32.2623 25.9785C32.5133 26.1294 32.7258 26.3366 32.8829 26.5837C33.0401 26.8309 33.1376 27.1111 33.1679 27.4024C33.1981 27.6937 33.1602 27.988 33.0571 28.2621C32.954 28.5363 32.7886 28.7827 32.574 28.9819L29.4762 32.0419C29.0326 32.4802 28.4873 32.8019 27.8891 32.9782C27.2909 33.1546 26.6583 33.1801 26.0479 33.0524C19.9583 31.7947 14.3454 28.8492 9.85067 24.5524C5.45568 20.2129 2.41437 14.6913 1.09567 8.65744C0.965397 8.05643 0.992587 7.43196 1.1746 6.84455C1.35662 6.25714 1.68728 5.72671 2.13456 5.30466L5.34567 2.20688C5.54438 2.00268 5.78671 1.84608 6.05452 1.74881C6.32233 1.65153 6.60867 1.6161 6.89211 1.64517C7.17555 1.67424 7.44874 1.76706 7.69123 1.91667C7.93371 2.06629 8.13921 2.26882 8.29233 2.5091L12.6934 9.03522C12.7694 9.13769 12.8103 9.26185 12.8103 9.38938C12.8103 9.51691 12.7694 9.64107 12.6934 9.74355L9.794 13.2285C10.8004 15.8078 12.3683 18.1306 14.384 20.0285Z" fill="#1114EF"/>
</g>
<defs>
<filter id="filter0_i_930_2421" x="0.00976562" y="0.535217" width="34" height="38" filterUnits="userSpaceOnUse" color-interpolation-filters="sRGB">
<feFlood flood-opacity="0" result="BackgroundImageFix"/>
<feBlend mode="normal" in="SourceGraphic" in2="BackgroundImageFix" result="shape"/>
<feColorMatrix in="SourceAlpha" type="matrix" values="0 0 0 0 0 0 0 0 0 0 0 0 0 0 0 0 0 0 127 0" result="hardAlpha"/>
<feOffset dy="4"/>
<feGaussianBlur stdDeviation="2"/>
<feComposite in2="hardAlpha" operator="arithmetic" k2="-1" k3="1"/>
<feColorMatrix type="matrix" values="0 0 0 0 0 0 0 0 0 0 0 0 0 0 0 0 0 0 0.25 0"/>
<feBlend mode="normal" in2="shape" result="effect1_innerShadow_930_2421"/>
</filter>
</defs>
</svg>
