<svg width="20" height="20" viewBox="0 0 20 20" fill="none" xmlns="http://www.w3.org/2000/svg">
<g clip-path="url(#clip0_1461_1225)">
<path d="M13.6047 2.44136L13.6048 2.44128L13.6013 2.43835C13.2696 2.15959 12.8454 2.01535 12.4125 2.0341C11.9796 2.05285 11.5695 2.23323 11.2632 2.53963L2.85143 10.9514L2.85138 10.9513L2.84866 10.9543L2.75079 11.0603L2.7507 11.0602L2.74762 11.0639C2.48657 11.3754 2.34346 11.7689 2.34336 12.1754V12.1754V16.4437H2.34321L2.34351 16.4491L2.3484 16.5388L2.34825 16.5388L2.34885 16.5443C2.37363 16.7705 2.48106 16.9796 2.65053 17.1315C2.81999 17.2835 3.03957 17.3675 3.26716 17.3675H7.53543V17.3675L7.5394 17.3674L7.68296 17.3617L7.68296 17.3618L7.68779 17.3614C8.09267 17.3256 8.47205 17.1484 8.75946 16.861L17.172 8.44847L17.1721 8.44854L17.1751 8.44523L17.2706 8.34082L17.2706 8.34088L17.2733 8.33766C17.5518 8.00601 17.6959 7.58202 17.6772 7.14935C17.6584 6.71667 17.4782 6.30674 17.172 6.00042L17.172 6.0004L13.7112 2.53962L13.7113 2.53956L13.7083 2.53679L13.6047 2.44136ZM9.9269 6.46539L13.2463 9.78475L7.49482 15.5362H4.17465V12.2176L9.9269 6.46539ZM11.2208 5.17146L12.4872 3.90508L15.8066 7.22444L14.5402 8.49082L11.2208 5.17146Z" fill="white" stroke="white" stroke-width="0.2"/>
</g>
<defs>
<clipPath id="clip0_1461_1225">
<rect width="19.5755" height="19.5755" fill="white" transform="translate(0 0.138916)"/>
</clipPath>
</defs>
</svg>
