<svg width="21" height="20" viewBox="0 0 21 20" fill="none" xmlns="http://www.w3.org/2000/svg">
<g clip-path="url(#clip0_1461_1230)">
<path d="M5.63139 5.88332H15.519L14.8045 15.8889C14.7904 16.0865 14.702 16.2714 14.5571 16.4064C14.4122 16.5414 14.2216 16.6166 14.0235 16.6167C14.0235 16.6167 14.0235 16.6167 14.0235 16.6167H7.12689L5.63139 5.88332ZM5.63139 5.88332L6.3459 15.8889L6.3459 15.8889C6.35996 16.0865 6.44834 16.2714 6.59325 16.4064C6.73815 16.5414 6.92881 16.6166 7.12686 16.6167L5.63139 5.88332ZM14.1035 2.79087L14.1035 2.79086C13.9896 2.44903 13.7711 2.15168 13.4789 1.94094C13.1866 1.7302 12.8355 1.61675 12.4752 1.61666H8.67604C8.67604 1.61666 8.67603 1.61666 8.67603 1.61666C8.31559 1.61657 7.96428 1.72994 7.67188 1.94069C7.37947 2.15144 7.16082 2.44889 7.04692 2.79086L7.04692 2.79087L6.6058 4.11666H3.90853C3.67425 4.11666 3.44957 4.20972 3.28392 4.37538C3.11826 4.54104 3.0252 4.76571 3.0252 4.99999C3.0252 5.23426 3.11826 5.45894 3.28392 5.6246C3.43815 5.77884 3.64356 5.87015 3.86023 5.882C3.86051 5.88646 3.86082 5.89092 3.86117 5.89537C3.86117 5.89542 3.86117 5.89548 3.86118 5.89553L4.58366 16.0152L4.63353 16.0117L4.58366 16.0152C4.62965 16.6583 4.91756 17.2602 5.38943 17.6995C5.8613 18.1389 6.48209 18.3832 7.12686 18.3833H14.0235C14.6683 18.3832 15.2891 18.1389 15.761 17.6995C16.2328 17.2602 16.5207 16.6583 16.5667 16.0152L16.5169 16.0117L16.5667 16.0152L17.2892 5.89605L17.2893 5.89605L17.2893 5.8946L17.2899 5.88202C17.5066 5.87023 17.7122 5.77891 17.8665 5.6246C18.0321 5.45894 18.1252 5.23426 18.1252 4.99999C18.1252 4.76572 18.0321 4.54104 17.8665 4.37538C17.7008 4.20972 17.4761 4.11666 17.2419 4.11666H14.5446L14.1035 2.79087ZM9.78594 9.06617L9.78602 9.06617L9.78569 9.06331C9.76037 8.84843 9.65708 8.65032 9.4954 8.50655C9.33372 8.36278 9.12489 8.28335 8.90854 8.28332C8.67425 8.28332 8.44957 8.37639 8.28392 8.54204C8.11826 8.7077 8.0252 8.93238 8.0252 9.16666V13.3333H8.02511L8.02528 13.3363L8.03112 13.4338L8.03103 13.4338L8.03138 13.4367C8.05797 13.6603 8.16893 13.8653 8.34158 14.0098C8.51423 14.1543 8.73554 14.2274 8.9603 14.2142C9.18505 14.201 9.39629 14.1025 9.55085 13.9388C9.7054 13.7751 9.79161 13.5585 9.79186 13.3334V13.3333V9.16666H9.79195L9.79177 9.16367L9.78594 9.06617ZM12.8665 8.54205C12.7008 8.37639 12.4761 8.28332 12.2419 8.28332C12.0076 8.28332 11.7829 8.37639 11.6173 8.54204C11.4516 8.7077 11.3585 8.93238 11.3585 9.16666V13.3333C11.3585 13.5676 11.4516 13.7923 11.6173 13.9579C11.7829 14.1236 12.0076 14.2167 12.2419 14.2167C12.4761 14.2167 12.7008 14.1236 12.8665 13.9579C13.0321 13.7923 13.1252 13.5676 13.1252 13.3333V9.16666C13.1252 8.93238 13.0321 8.7077 12.8665 8.54205ZM12.6833 4.11666H8.46705L8.71125 3.38332H12.4391L12.6833 4.11666Z" fill="white" stroke="white" stroke-width="0.1"/>
</g>
<defs>
<clipPath id="clip0_1461_1230">
<rect width="20" height="20" fill="white" transform="translate(0.575195)"/>
</clipPath>
</defs>
</svg>
